<?xml version="1.0" encoding="utf-8"?>
<!-- Svg Vector Icons : http://www.onlinewebfonts.com/icon -->
<!DOCTYPE svg PUBLIC "-//W3C//DTD SVG 1.1//EN" "http://www.w3.org/Graphics/SVG/1.1/DTD/svg11.dtd">
<svg version="1.1" xmlns="http://www.w3.org/2000/svg" xmlns:xlink="http://www.w3.org/1999/xlink" x="0px" y="0px" viewBox="0 0 1000 1000" enable-background="new 0 0 1000 1000" xml:space="preserve">
<metadata> Svg Vector Icons : http://www.onlinewebfonts.com/icon </metadata>
<g><path d="M95.1,230.1l462.7,462.7c10.7,10.7,10.7,27.9,0,38.6l-38.6,38.6c-10.7,10.7-27.9,10.7-38.6,0L18,307.2c-10.7-10.7-10.7-27.9,0-38.6l38.6-38.6C67.2,219.4,84.5,219.4,95.1,230.1z"/><path d="M943.5,230.1l38.6,38.6c10.7,10.7,10.7,27.9,0,38.6L519.3,769.9c-10.7,10.7-27.9,10.7-38.6,0l-38.6-38.6c-10.7-10.7-10.7-27.9,0-38.6l462.7-462.7C915.5,219.4,932.8,219.4,943.5,230.1z"/></g>
</svg>